FFmpeg version SVN-r25716, Copyright (c) 2000-2010 the FFmpeg developers  built on Nov 10 2010 12:23:18 with gcc 4.1.2 20080704 (Red Hat 4.1.2-48)  configuration: --enable-libmp3lame --enable-shared --disable-mmx --arch=x86_64  libavutil     50.33. 0 / 50.33. 0  libavcore      0.12. 1 /  0.12. 1  libavcodec    52.94. 4 / 52.94. 4  libavformat   52.84. 0 / 52.84. 0  libavdevice   52. 2. 2 / 52. 2. 2  libavfilter    1.59. 0 /  1.59. 0  libswscale     0.12. 0 /  0.12. 0Input #0, avi, from '/RAID10/data/converted_video_files/47369.avi':  Duration: 00:00:13.40, start: 0.000000, bitrate: 103945 kb/s    Stream #0.0: Video: msvideo1, rgb555le, 1024x1024, 20 tbr, 20 tbn, 20 tbc[buffer @ 0xa181050] w:1024 h:1024 pixfmt:rgb555le[ffsink @ 0xa1812c0] auto-inserting filter 'auto-inserted scaler 0' between the filter 'src' and the filter 'out'[scale @ 0xa193250] w:1024 h:1024 fmt:rgb555le -> w:1024 h:1024 fmt:yuv420p flags:0x4Output #0, flv, to '/RAID10/data/converted_video_files/47369.flv':  Metadata:    encoder         : Lavf52.84.0    Stream #0.0: Video: flv, yuv420p, 1024x1024, q=2-31, 600 kb/s, 1k tbn, 24 tbcStream mapping:  Stream #0.0 -> #0.0Press [q] to stop encodingframe=    7 fps=  0 q=9.1 size=     414kB time=0.33 bitrate=10148.9kbits/s    frame=   16 fps= 14 q=31.0 size=     471kB time=0.79 bitrate=4870.8kbits/s    frame=   27 fps= 16 q=31.0 size=     512kB time=1.33 bitrate=3145.7kbits/s    frame=   34 fps= 15 q=31.0 size=     518kB time=1.71 bitrate=2481.6kbits/s    frame=   45 fps= 17 q=31.0 size=     553kB time=2.25 bitrate=2013.2kbits/s    frame=   54 fps= 17 q=31.0 size=     586kB time=2.71 bitrate=1772.4kbits/s    frame=   63 fps= 17 q=31.0 size=     619kB time=3.12 bitrate=1623.5kbits/s    frame=   74 fps= 18 q=31.0 size=     655kB time=3.71 bitrate=1446.6kbits/s    frame=   85 fps= 18 q=24.8 size=     692kB time=4.25 bitrate=1333.1kbits/s    frame=   95 fps= 18 q=31.0 size=     700kB time=4.75 bitrate=1207.6kbits/s    frame=  107 fps= 19 q=31.0 size=     737kB time=5.33 bitrate=1131.8kbits/s    frame=  118 fps= 19 q=31.0 size=     772kB time=5.88 bitrate=1076.3kbits/s    frame=  129 fps= 19 q=31.0 size=     814kB time=6.46 bitrate=1032.0kbits/s    frame=  138 fps= 19 q=31.0 size=     848kB time=6.88 bitrate=1010.9kbits/s    frame=  149 fps= 19 q=31.0 size=     884kB time=7.46 bitrate= 971.2kbits/s    frame=  160 fps= 19 q=31.0 size=     918kB time=8.00 bitrate= 940.5kbits/s    frame=  172 fps= 19 q=31.0 size=     955kB time=8.58 bitrate= 910.9kbits/s    frame=  181 fps= 19 q=22.3 size=     988kB time=9.04 bitrate= 895.2kbits/s    frame=  188 fps= 19 q=26.8 size=     994kB time=9.37 bitrate= 868.8kbits/s    frame=  200 fps= 19 q=27.1 size=    1032kB time=10.00 bitrate= 845.3kbits/s    frame=  211 fps= 19 q=27.2 size=    1069kB time=10.54 bitrate= 830.4kbits/s    frame=  222 fps= 19 q=25.8 size=    1105kB time=11.08 bitrate= 816.8kbits/s    frame=  233 fps= 19 q=27.6 size=    1143kB time=11.62 bitrate= 805.3kbits/s    frame=  244 fps= 19 q=27.2 size=    1181kB time=12.21 bitrate= 792.1kbits/s    frame=  253 fps= 19 q=19.6 size=    1216kB time=12.62 bitrate= 789.0kbits/s    frame=  259 fps= 19 q=23.2 size=    1222kB time=12.96 bitrate= 772.7kbits/s    frame=  269 fps= 19 q=29.1 size=    1289kB time=13.46 bitrate= 784.7kbits/s    frame=  278 fps= 19 q=29.0 size=    1324kB time=13.87 bitrate= 781.6kbits/s    frame=  288 fps= 19 q=22.9 size=    1333kB time=14.38 bitrate= 759.5kbits/s    frame=  297 fps= 19 q=23.6 size=    1369kB time=14.83 bitrate= 755.9kbits/s    frame=  307 fps= 19 q=22.8 size=    1405kB time=15.33 bitrate= 750.7kbits/s    frame=  317 fps= 19 q=21.7 size=    1442kB time=15.83 bitrate= 746.0kbits/s    frame=  327 fps= 19 q=21.0 size=    1479kB time=16.33 bitrate= 742.0kbits/s    frame=  337 fps= 19 q=14.7 size=    1516kB time=16.83 bitrate= 737.6kbits/s    frame=  347 fps= 19 q=20.1 size=    1526kB time=17.33 bitrate= 721.2kbits/s    frame=  355 fps= 19 q=19.9 size=    1561kB time=17.75 bitrate= 720.6kbits/s    frame=  364 fps= 19 q=21.2 size=    1599kB time=18.17 bitrate= 720.9kbits/s    frame=  374 fps= 19 q=18.5 size=    1638kB time=18.67 bitrate= 718.7kbits/s    frame=  384 fps= 19 q=18.5 size=    1648kB time=19.17 bitrate= 704.4kbits/s    frame=  386 fps= 19 q=19.0 Lsize=    1678kB time=19.29 bitrate= 712.6kbits/s    video:1672kB audio:0kB global headers:0kB muxing overhead 0.373023%